# xmcd
#
# Track frame offsets:
#	183
#	12808
#	26345
#	39675
#	54618
#	70128
#	83008
#	96328
#	114708
#	129393
#
# Disc length: 1903 seconds
# Revision: 1
# Processed by: cddbd v1.5.2PL0 Copyright (c) Steve Scherf et al.
# Submitted via: dBpowerAMP V12.0
#
DISCID=7c076d0a
DTITLE=Johnny Cash - Water From The Wells Of Home
DYEAR=1988
DGENRE=Country
TTITLE0=Ballad Of A Teenage Queen [Rosanne Cash and The Everly Brothers]
TTITLE1=As Long As I Live [w/Emmylou Harris]
TTITLE2=Where Did We Go Right [w/June Carter and The Carter Family]
TTITLE3=The Last Of The Drifters [w/Tom T. Hall]
TTITLE4=Call Me The Breeze [w/John Carter Cash]
TTITLE5=That Old Wheel [w/Hank Williams Jr]
TTITLE6=Sweeter Than The Flowers [w/Waylon Jennings]
TTITLE7=A Croft In Clachan (The Ballad Of Rob MacDunn) [w/Glen Campbell]
TTITLE8=New Moon Over Jamaica [w/Paul McCartney]
TTITLE9=Water From The Wells Of Home [w/John Carter Cash]
EXTD=
EXTT0=
EXTT1=
EXTT2=
EXTT3=
EXTT4=
EXTT5=
EXTT6=
EXTT7=
EXTT8=
EXTT9=
PLAYORDER=
